                          <svg xmlns="http://www.w3.org/2000/svg" x="0px" y="0px"
width="48" height="48"
viewBox="0 0 172 172"
style=" fill:#000000;"><g transform="translate(25.8,25.8) scale(0.7,0.7)"><g fill="none" fill-rule="nonzero" stroke="none" stroke-width="1" stroke-linecap="butt" stroke-linejoin="miter" stroke-miterlimit="10" stroke-dasharray="" stroke-dashoffset="0" font-family="none" font-weight="none" font-size="none" text-anchor="none" style="mix-blend-mode: normal"><path d="M0,172v-172h172v172z" fill="none" stroke="none"></path><g stroke="none"><path d="M94.56641,155.20313h-4.3c1.44453,0.06719 2.85547,0.06719 4.3,0z" fill="#ffffff"></path><path d="M128.59688,130.00781c-1.075,-3.69531 -3.69531,-7.05469 -6.58438,-9.57422c-3.49375,-3.05703 -7.76016,-5.77813 -12.49688,-6.18125c-2.85547,-0.23516 -5.44219,0.40312 -7.65937,1.81406c0.16797,0.10078 0.47031,0.47031 0.70547,0.63828c0.5375,0.36953 1.14219,0.67188 1.74688,0.97422c1.57891,0.77266 3.225,1.37734 4.90469,1.98203c2.78828,1.00781 5.94609,1.71328 8.36484,3.42656c2.88906,2.04922 5.47578,4.73672 7.525,7.59219c0.87344,1.20938 1.88125,2.72109 2.51953,4.3c1.14219,-1.44453 1.51172,-3.12422 0.97422,-4.97187z" fill="#000000"></path><path d="M120.56797,130.34375c-1.88125,-2.04922 -3.99766,-4.36719 -6.61797,-5.44219c-3.12422,-1.27656 -6.38281,-2.18359 -9.47344,-3.49375c-1.74688,-0.73906 -3.99766,-1.64609 -5.24063,-3.25859c-0.23516,0.23516 -0.47031,0.47031 -0.67187,0.70547c-2.38516,2.65391 -4.43437,5.77812 -7.42422,7.79375c-7.69297,5.13984 -16.52812,0.57109 -23.28047,-3.93047c-7.02109,-4.70312 -13.50469,-10.88437 -17.56953,-18.34219c-2.04922,-3.69531 -3.59453,-7.65938 -4.23281,-11.85859c-0.57109,-3.89688 -0.73906,-8.36484 1.17578,-11.95937c1.71328,-3.19141 4.46797,-5.44219 7.15547,-7.79375c0.83984,-0.73906 1.67969,-1.51172 2.41875,-2.28438c-0.70547,-2.15 -0.87344,-4.40078 -1.41094,-6.61797c-0.57109,-2.35156 -1.64609,-4.53516 -2.88906,-6.61797c-2.35156,-3.99766 -5.30781,-7.69297 -9.07031,-10.48125c-1.71328,-1.24297 -3.49375,-2.55312 -5.375,-3.56094c-1.27656,-0.67187 -2.62031,-1.20938 -3.86328,-1.94844c-1.44453,-0.87344 -2.55312,-1.94844 -3.12422,-3.225c-8.29766,10.34687 -14.81484,22.40703 -14.61328,36.07969c0.10078,7.39063 2.04922,14.57969 5.34141,21.23125c3.56094,7.22266 8.6,13.67266 13.60547,19.95469c3.42656,4.26641 6.95391,8.43203 10.58203,12.53047c3.29219,3.66172 6.55078,7.28984 10.38047,10.41406c6.92031,5.64375 14.98281,9.94375 23.68359,12.09375c8.46563,2.11641 17.36797,2.31797 25.69922,-0.43672c6.9875,-2.31797 13.16875,-6.24844 18.84609,-10.85078c0,-0.06719 0.03359,-0.16797 0.06719,-0.26875c0.97422,-2.88906 -2.38516,-6.51719 -4.09844,-8.43203z" fill="#ffffff"></path><path d="M51.29766,42.96641c-4.40078,-4.63594 -10.64922,-9.23828 -17.2,-7.22266c-0.77266,2.25078 3.72891,3.56094 5.13984,4.3c3.29219,1.74687 6.71875,4.09844 9.37266,6.71875c3.15781,3.09062 5.74453,6.75234 7.76016,10.64922c1.00781,1.91484 1.81406,3.82969 2.28438,5.94609c0.26875,1.20938 0.43672,2.38516 0.67188,3.59453c0.63828,-1.24297 1.04141,-2.65391 1.17578,-4.23281c0.57109,-7.32344 -4.40078,-14.71406 -9.20469,-19.75312z" fill="#000000"></path><path d="M124.66641,118.28359c-6.48359,-5.97969 -16.05781,-10.07812 -24.35547,-5.30781c-6.58438,3.7625 -9.00313,13.4375 -17.93906,12.56406c-4.36719,-0.40313 -8.23047,-2.75469 -11.825,-5.03906c-3.59453,-2.28438 -6.92031,-5.03906 -9.91016,-8.02891c-6.14766,-6.11406 -10.88437,-14.04219 -11.55625,-22.81016c-0.30234,-4.09844 0.50391,-7.55859 3.29219,-10.61562c2.58672,-2.82188 5.9125,-4.87109 8.33125,-7.86094c5.17344,-6.38281 3.25859,-14.94922 -0.36953,-21.5c-3.52734,-6.34922 -8.73437,-12.39609 -15.25156,-15.82266c-3.72891,-1.98203 -8.02891,-2.62031 -12.06016,-1.37734c-0.60469,-0.40313 -1.44453,-0.40313 -2.08281,0.30234c-5.81172,6.78594 -11.05234,14.10938 -14.31094,22.50781c-3.39297,8.66719 -4.43437,18.24141 -2.6875,27.4125c1.81406,9.50703 6.45,18.00625 12.06016,25.8c6.24844,8.63359 13.16875,16.79688 20.32422,24.65781c10.85078,11.92578 25.46406,20.425 41.72344,21.90312c0.73906,0.06719 1.47812,0.10078 2.18359,0.13437h4.3c5.30781,-0.23516 10.54844,-1.37734 15.52031,-3.35937c7.12187,-2.85547 13.4375,-7.39062 19.21563,-12.39609c0.63828,-0.5375 0.80625,-1.31016 0.60469,-1.94844c5.61016,-6.04687 -0.30234,-14.68047 -5.20703,-19.21562zM34.09766,35.71016c6.55078,-2.01562 12.79922,2.58672 17.2,7.22266c4.80391,5.07266 9.80937,12.42969 9.20469,19.75313c-0.13438,1.57891 -0.5375,2.98984 -1.17578,4.23281c-0.23516,-1.20938 -0.40313,-2.38516 -0.67187,-3.59453c-0.47031,-2.11641 -1.27656,-4.03125 -2.28438,-5.94609c-2.01562,-3.93047 -4.63594,-7.55859 -7.76016,-10.64922c-2.65391,-2.62031 -6.08047,-4.97187 -9.37266,-6.71875c-1.41094,-0.73906 -5.94609,-2.04922 -5.13984,-4.3zM124.66641,138.74219c-0.03359,0.10078 -0.03359,0.16797 -0.06719,0.26875c-5.67734,4.60234 -11.85859,8.53281 -18.84609,10.85078c-8.33125,2.75469 -17.23359,2.55313 -25.69922,0.43672c-8.70078,-2.15 -16.76328,-6.45 -23.68359,-12.09375c-3.82969,-3.12422 -7.12187,-6.71875 -10.38047,-10.41406c-3.62812,-4.06484 -7.18906,-8.26406 -10.58203,-12.53047c-5.00547,-6.28203 -10.04453,-12.73203 -13.60547,-19.95469c-3.29219,-6.61797 -5.24063,-13.80703 -5.34141,-21.19766c-0.20156,-13.67266 6.31563,-25.69922 14.57969,-36.07969c0.5375,1.27656 1.64609,2.35156 3.12422,3.225c1.24297,0.73906 2.58672,1.27656 3.86328,1.94844c1.88125,1.00781 3.66172,2.28437 5.375,3.56094c3.7625,2.75469 6.71875,6.45 9.07031,10.48125c1.24297,2.08281 2.31797,4.26641 2.88906,6.61797c0.5375,2.21719 0.70547,4.46797 1.41094,6.61797c-0.73906,0.77266 -1.54531,1.54531 -2.41875,2.28438c-2.6875,2.35156 -5.44219,4.56875 -7.15547,7.79375c-1.91484,3.59453 -1.78047,8.0625 -1.17578,11.95938c0.63828,4.19922 2.18359,8.16328 4.23281,11.85859c4.09844,7.45781 10.58203,13.63906 17.56953,18.34219c6.75234,4.50156 15.62109,9.07031 23.28047,3.93047c3.02344,-2.01562 5.07266,-5.10625 7.42422,-7.79375c0.23516,-0.23516 0.43672,-0.47031 0.67188,-0.70547c1.20938,1.6125 3.49375,2.51953 5.24063,3.25859c3.09063,1.31016 6.34922,2.25078 9.47344,3.49375c2.62031,1.075 4.73672,3.39297 6.61797,5.44219c1.74688,1.91484 5.10625,5.54297 4.13203,8.39844zM127.65625,134.97969c-0.60469,-1.57891 -1.6125,-3.09063 -2.51953,-4.3c-2.08281,-2.85547 -4.66953,-5.54297 -7.525,-7.59219c-2.45234,-1.71328 -5.61016,-2.41875 -8.36484,-3.42656c-1.64609,-0.60469 -3.29219,-1.24297 -4.90469,-1.98203c-0.60469,-0.26875 -1.20938,-0.60469 -1.74688,-0.97422c-0.20156,-0.13437 -0.5375,-0.5375 -0.70547,-0.63828c2.25078,-1.37734 4.80391,-2.04922 7.65938,-1.81406c4.73672,0.40313 9.00312,3.15781 12.49687,6.18125c2.88906,2.48594 5.50938,5.87891 6.58438,9.57422c0.50391,1.84766 0.13438,3.52734 -0.97422,4.97187z" fill="#ffffff"></path><g fill="#ffffff"><path d="M141.42969,65.0375c-2.45234,-1.20937 -4.40078,-3.46016 -6.38281,-5.30781c-3.69531,-3.39297 -7.39062,-6.92031 -11.35469,-10.01094c0.16797,3.09062 0.57109,6.18125 0.60469,9.30547c0,0.43672 -0.13437,0.80625 -0.36953,1.10859c0,0.26875 -0.03359,0.5375 -0.13437,0.80625c-0.23516,0.63828 -0.73906,0.90703 -1.24297,1.31016c-0.67187,0.50391 -1.34375,0.40312 -1.84766,0c-4.33359,0.80625 -8.76797,0.67188 -13.16875,1.20937c-5.57656,0.70547 -11.18672,1.31016 -16.79687,1.67969c0.20156,3.62813 1.74687,7.08828 2.21719,10.71641c5.00547,-0.26875 10.04453,-0.30234 15.01641,-0.60469c4.70313,-0.26875 9.10391,-2.55312 13.87422,-2.35156c0.33594,0 0.63828,0.10078 0.87344,0.26875c0.50391,-0.03359 1.00781,0.16797 1.31016,0.80625c1.57891,3.05703 1.64609,6.38281 1.64609,9.70859c3.59453,-2.98984 7.22266,-5.9125 11.15313,-8.49922c2.08281,-1.37734 4.36719,-2.65391 6.18125,-4.40078c0.80625,-0.77266 1.47813,-1.81406 2.38516,-2.45234c0.26875,-0.16797 0.5375,-0.36953 0.77266,-0.57109l0.03359,-0.03359c0,-0.10078 0.03359,-0.16797 0.03359,-0.26875c-1.54531,-0.83984 -3.19141,-1.6125 -4.80391,-2.41875z"></path><path d="M149.32422,66.88516c0.13438,-0.67187 -0.06719,-1.44453 -0.77266,-1.88125c-1.64609,-1.04141 -3.46016,-1.88125 -5.20703,-2.78828c-2.31797,-1.17578 -4.16562,-3.25859 -6.08047,-5.03906c-4.23281,-3.93047 -8.56641,-7.99531 -13.20244,-11.42187c-0.83984,-0.63828 -1.81406,-0.33594 -2.38516,0.26875c-0.10078,0.03359 -0.20156,0.03359 -0.30234,0.06719c-1.10859,0.47031 -1.41094,1.20938 -1.44453,2.38516c-0.03359,0.47031 0.13437,0.83984 0.40312,1.10859c0.13437,3.05703 0.5375,6.08047 0.60469,9.1375c-4.63594,1.075 -9.50703,0.80625 -14.24375,1.37734c-5.67734,0.70547 -11.42187,1.34375 -17.13281,1.67969c-0.5375,0.03359 -0.94063,0.26875 -1.17578,0.60469c-0.57109,0.26875 -1.00781,0.77266 -1.04141,1.54531c-0.23516,4.73672 2.25078,9.07031 2.35156,13.77344c0.03359,0.94062 0.94062,1.6125 1.81406,1.54531c5.375,-0.33594 10.75,-0.67187 16.125,-0.67187c4.70313,0 9.07031,-2.35156 13.77344,-2.35156c1.10859,2.48594 0.97422,5.50938 0.90703,8.26406c0,0.10078 -0.03359,0.16797 -0.03359,0.26875v1.00781c0,0.50391 0.16797,0.87344 0.43672,1.10859c-0.03359,1.27656 1.27656,2.51953 2.51953,1.51172c5.34141,-4.50156 10.78359,-8.6 16.59531,-12.46328c2.31797,-1.54531 4.06484,-3.62812 6.21484,-5.34141c0.63828,-0.50391 1.6125,-1.27656 1.67969,-2.15c0.06719,-0.60469 -0.06719,-1.14219 -0.40312,-1.54531zM146.2,67.79219l-0.03359,0.03359c-0.23516,0.20156 -0.50391,0.40312 -0.77266,0.57109c-0.90703,0.60469 -1.57891,1.67969 -2.38516,2.45234c-1.81406,1.74687 -4.09844,3.02344 -6.18125,4.40078c-3.89687,2.58672 -7.55859,5.50938 -11.15312,8.49922c0.03359,-3.32578 -0.06719,-6.65156 -1.64609,-9.70859c-0.30234,-0.60469 -0.80625,-0.83984 -1.31016,-0.80625c-0.23516,-0.16797 -0.5375,-0.26875 -0.87344,-0.26875c-4.77031,-0.23516 -9.17109,2.08281 -13.87422,2.35156c-5.00547,0.30234 -10.01094,0.33594 -15.01641,0.60469c-0.47031,-3.62812 -2.01562,-7.08828 -2.21719,-10.71641c5.61016,-0.36953 11.22031,-0.97422 16.79688,-1.67969c4.40078,-0.5375 8.83516,-0.40313 13.16875,-1.20938c0.50391,0.40312 1.17578,0.50391 1.84766,0c0.50391,-0.40312 0.97422,-0.70547 1.24297,-1.31016c0.10078,-0.26875 0.16797,-0.5375 0.13437,-0.80625c0.23516,-0.26875 0.36953,-0.63828 0.36953,-1.10859c-0.03359,-3.09062 -0.43672,-6.18125 -0.60469,-9.30547c3.96406,3.12422 7.69297,6.61797 11.35469,10.01094c1.98203,1.84766 3.93047,4.09844 6.38281,5.30781c1.6125,0.80625 3.225,1.57891 4.77031,2.48594c0,0 0,0.10078 0,0.20156z"></path></g></g></g></g></svg>