<svg class="brxe-svg" id="brxe-kynbyc" xmlns="http://www.w3.org/2000/svg" xmlns:xlink="http://www.w3.org/1999/xlink" version="1.1" x="0px" y="0px" viewBox="0 0 432 216" style="enable-background:new 0 0 432 216;" xml:space="preserve"> <g> <g> <path d="M395.4,206.1H36.6V9.9h358.9V206.1z M38.5,204.2h355V11.8h-355V204.2z"></path> </g> <g> <g> <path d="M111.8,84c0,4.6-3.2,7.8-7.9,7.8c-4.6,0-8.1-3.2-8.1-8.7c0-2.1,0.5-5.1,2.2-8.1c-0.9-0.3-1.8-0.5-2.9-0.5 c-5.4,0-13.6,5.3-13.6,25.6c0,20.3,8.3,25.3,14.1,25.3c5,0,11.4-3.5,16.4-8.5c0,5.4-5.8,11.7-20,11.7c-18.3,0-28.6-10-28.6-28.2 c0-17.7,9.9-28.2,28.9-28.2C106.4,72.2,111.8,78.1,111.8,84z"></path> <path d="M113.4,62.8c0-5.4,6.4-10.7,13.7-10.7c6.1,0,12.3,3.4,12.3,10.6v53.7c0,6.4,0,9,6.4,9v1.6H116v-1.6c6.4,0,6.4-2.7,6.4-9 V62.6c0-2.7-1.2-3.6-2.6-3.6C118,59,115.6,60.5,113.4,62.8z"></path> <path d="M219,84.7c-1.2-2.7-2.8-4-4.6-4c-1.7,0-3.6,1.3-5.6,3.3c0-6.1,6.7-10.6,14.6-10.6c6.1,0,10.2,2.8,13.1,9.6l9.9,24.2 L258.5,79c0.3-0.6,0.4-1.2,0.4-1.7c0-1.8-3.8-1.9-6.1-1.9h-0.9v-1.6h17v1.6c-4.8,0-6.1,0.6-7.3,3.6l-21,48.5H238L219,84.7z"></path> <path d="M265.1,99.6c0-16.9,10.5-27.4,29.3-27.4c8.2,0,22.7,3.9,22.7,15.5c0,14.7-23,15.3-34,15.3c0.3,18.8,2.9,22.3,11.1,22.3 c7.3,0,15.9-2.9,21.6-8.5c0,5.4-7,11.7-20.8,11.7C275.9,128.5,265.1,116.6,265.1,99.6z M299.7,87.1c0-6.1-2.2-12.2-7.3-12.2 c-5,0-9.1,6-9.1,25.5C291.7,99.8,299.7,98.6,299.7,87.1z"></path> <path d="M321.9,84c0-5.4,6.4-10.7,13.7-10.7c5.1,0,10.3,2.6,11.9,7.5c3.7-4.7,9-7.4,14.7-7.4c7.1,0,12.5,4.6,12.5,10.2 c0,4.7-3.6,8.2-8.6,8.2c-5.6,0-7.5-4.6-7.5-8.8c0-2.9,0.9-5.7,1.7-6.9c-3.8,0-10.1,5.1-12.3,9.4v30.9c0,6.4,0,9,6.4,9v1.6h-29.8 v-1.6c6.4,0,6.4-2.7,6.4-9V83.9c0-2.7-1.2-3.6-2.6-3.6C326.6,80.3,324.1,81.8,321.9,84z"></path> <g> <g> <path d="M181.3,71.9c-17.5-1.6-29.3,7.9-30.9,25.4s8.1,29.1,25.6,30.7c17.5,1.6,29.3-7.9,30.9-25.4S198.8,73.5,181.3,71.9z M194.8,111.5c-0.2,0-0.4,0-0.7,0c-1.7,0-1.8,0.1-1.6,1.8c0.2,2.2-0.7,3.7-2.5,4.6c-1.9,0.9-4.1,0.6-5.7-0.7 c-1.6-1.4-3-1.8-4.3-4.8l-1.1,1.2c-0.1,0-1.3,2.3-2.1,3.4c-1.9,2.6-5.8,2.7-8,0.4c-0.9-1-1.1-2.2-1.2-3.4 c0-1.2-0.2-1.4-1.5-1.3c-2.8,0.3-4.2-0.8-5.2-2.8c-1-2.1-0.6-4.3,1.2-6c1.7-1.6,3.8-2.5,6.1-3c1.1-0.2,2.1-0.4,3.2-0.7 c-1.3-0.2-2.6-0.2-3.9-0.5c-2.4-0.4-4.6-1.1-6.4-2.8c-2.2-2-2.3-5.4-0.3-7.4c1-1,2.3-1.2,3.7-1.2c1.2,0,1.3-0.2,1.2-1.4 c-0.2-2.7,0.6-4.2,2.8-5.2c2-0.8,4.3-0.3,6.1,1.4c1.6,1.6,2.5,3.6,3,5.7c0.3,1.2,0.6,2.4,1,3.6c0-0.5,0.1-1,0.1-1.5 c0.2-2.5,0.5-5,1.9-7.1c1.5-2.5,3.8-3.7,6.7-2.8c1.8,0.6,3.1,2.1,3.2,4.2c0.1,1.9,0.2,2,2.1,1.9c4.1-0.2,6.1,4.4,4.6,7.2 c-1.2,2.1-3.1,3.3-5.3,4.1c-1.8,0.6-3.7,0.9-5.5,1.4c0.9,0.1,2,0.2,3,0.3c2.2,0.3,4.3,0.8,6.2,2c2.8,1.6,3.9,4.8,2.4,7.3 C197.5,110.5,196.4,111.4,194.8,111.5z"></path> </g> </g> </g> </g> <g> <g> <path d="M80.7,154.9v2.3c-0.8,0.4-1.7,0.8-2.5,1c-0.9,0.2-1.7,0.3-2.5,0.3c-0.8,0-1.6-0.1-2.3-0.3c-0.7-0.2-1.4-0.5-2.1-0.9 c-1-0.7-1.9-1.6-2.4-2.6c-0.6-1.1-0.9-2.2-0.9-3.5c0-0.9,0.2-1.9,0.6-2.8c0.4-0.9,0.9-1.7,1.6-2.3c0.8-0.7,1.6-1.2,2.5-1.6 c0.9-0.4,2-0.5,3.1-0.5c0.8,0,1.6,0.1,2.4,0.3c0.8,0.2,1.6,0.5,2.4,0.9v2.2c-0.9-0.5-1.7-0.8-2.5-1.1c-0.8-0.2-1.5-0.3-2.3-0.3 c-1.6,0-3,0.5-4.1,1.5c-1.1,1-1.6,2.3-1.6,3.8c0,1.5,0.5,2.8,1.6,3.8c1.1,1,2.4,1.5,4,1.5c0.8,0,1.6-0.1,2.5-0.4 C79,155.9,79.9,155.4,80.7,154.9z"></path> <path d="M99.6,158.2l6.1-14.1h1.5l6.2,14.1h-2.1l-1.8-4.1h-6l-1.8,4.1H99.6z M104.3,152.3h4.4l-2.2-5.1L104.3,152.3z"></path> <path d="M132.9,158.2v-14.1h4.1c1.4,0,2.5,0.3,3.3,1c0.8,0.7,1.2,1.6,1.2,2.8c0,0.9-0.2,1.7-0.6,2.2c-0.4,0.6-1.1,1-2,1.3 c0.2,0.1,0.5,0.3,0.7,0.5c0.2,0.2,0.5,0.6,0.8,1.1l3.4,5.2h-2.4l-2.4-3.7c-0.7-1.1-1.3-1.8-1.8-2.1c-0.4-0.3-1-0.5-1.6-0.5H135 v6.3H132.9z M135,150.2h1.7c0.9,0,1.6-0.2,2.1-0.5c0.5-0.4,0.7-0.9,0.7-1.7c0-0.8-0.2-1.3-0.7-1.7c-0.4-0.3-1.2-0.5-2.1-0.5H135 V150.2z"></path> <path d="M163.1,158.2v-14.1h4.1c1.4,0,2.5,0.3,3.3,1c0.8,0.7,1.2,1.6,1.2,2.8c0,0.9-0.2,1.7-0.6,2.2c-0.4,0.6-1.1,1-2,1.3 c0.2,0.1,0.5,0.3,0.7,0.5c0.2,0.2,0.5,0.6,0.8,1.1l3.4,5.2h-2.4l-2.4-3.7c-0.7-1.1-1.3-1.8-1.8-2.1c-0.4-0.3-1-0.5-1.6-0.5h-0.6 v6.3H163.1z M165.2,150.2h1.7c0.9,0,1.6-0.2,2.1-0.5c0.5-0.4,0.7-0.9,0.7-1.7c0-0.8-0.2-1.3-0.7-1.7c-0.4-0.3-1.2-0.5-2.1-0.5 h-1.7V150.2z"></path> <path d="M193.4,158.2v-14.1h2v14.1H193.4z"></path> <path d="M217,158.2v-14.1h1.8l9.3,10.9v-10.9h2v14.1h-1.8l-9.2-10.9v10.9H217z"></path> <path d="M263.6,151.3v6c-0.9,0.4-1.8,0.7-2.6,0.9c-0.8,0.2-1.6,0.3-2.4,0.3c-0.8,0-1.6-0.1-2.4-0.3c-0.7-0.2-1.4-0.5-2.1-0.9 c-1-0.7-1.9-1.6-2.4-2.6c-0.6-1.1-0.9-2.2-0.9-3.5c0-0.9,0.2-1.9,0.6-2.8c0.4-0.9,0.9-1.7,1.6-2.3c0.7-0.7,1.6-1.3,2.5-1.6 c0.9-0.3,2-0.5,3.1-0.5c0.8,0,1.6,0.1,2.4,0.3c0.8,0.2,1.6,0.5,2.4,0.8v2.2c-0.9-0.5-1.7-0.8-2.5-1.1c-0.8-0.2-1.5-0.3-2.3-0.3 c-1.6,0-3,0.5-4.1,1.5c-1.1,1-1.6,2.3-1.6,3.8c0,1.5,0.5,2.8,1.6,3.8c1.1,1,2.4,1.5,4,1.5c0.5,0,1-0.1,1.4-0.2 c0.5-0.1,1-0.3,1.5-0.5v-2.7h-2.6v-1.9H263.6z"></path> <path d="M288.2,158.2V146H283v-1.8h12.3v1.8h-5.2v12.2H288.2z"></path> <path d="M314.8,151.1c0-0.9,0.2-1.9,0.6-2.7s0.9-1.7,1.6-2.3c0.7-0.7,1.5-1.2,2.4-1.6c0.9-0.4,1.9-0.5,2.9-0.5c1,0,2,0.2,2.9,0.5 c0.9,0.4,1.7,0.9,2.4,1.6c0.7,0.7,1.3,1.5,1.6,2.4c0.4,0.9,0.6,1.8,0.6,2.8c0,1-0.2,1.9-0.6,2.8c-0.4,0.9-0.9,1.7-1.6,2.3 c-0.7,0.7-1.5,1.2-2.4,1.6c-0.9,0.4-1.9,0.5-2.9,0.5c-1,0-2-0.2-2.9-0.6c-0.9-0.4-1.7-0.9-2.4-1.6c-0.7-0.7-1.3-1.5-1.6-2.4 C315,153.1,314.8,152.1,314.8,151.1z M316.9,151.2c0,0.7,0.1,1.4,0.4,2.1c0.3,0.6,0.7,1.2,1.2,1.7c0.5,0.5,1.1,0.9,1.7,1.2 c0.7,0.3,1.3,0.4,2.1,0.4c0.7,0,1.4-0.1,2.1-0.4c0.6-0.3,1.2-0.7,1.7-1.2c0.5-0.5,0.9-1.1,1.2-1.7c0.3-0.7,0.4-1.3,0.4-2.1 c0-0.7-0.1-1.4-0.4-2s-0.7-1.2-1.2-1.8c-0.5-0.5-1.1-0.9-1.7-1.2c-0.7-0.3-1.3-0.4-2.1-0.4c-0.7,0-1.4,0.1-2,0.4 c-0.7,0.3-1.2,0.7-1.8,1.2c-0.5,0.5-0.9,1.1-1.2,1.7C317,149.8,316.9,150.5,316.9,151.2z"></path> <path d="M350.6,158.2v-14.1h1.8l9.3,10.9v-10.9h2v14.1h-1.8l-9.2-10.9v10.9H350.6z"></path> </g> </g> </g> </svg>